<svg xmlns="http://www.w3.org/2000/svg" viewBox="0 0 24 24" fill="currentColor">
  <!-- Cloud silhouette -->
  <path d="M17.5 19h-11a4.5 4.5 0 0 1-.6-8.96 6 6 0 0 1 11.62 1.07A3.75 3.75 0 0 1 17.5 19Zm-11-7.5a3 3 0 0 0 0 6h11a2.25 2.25 0 0 0 .3-4.48l-.83-.11-.1-.83a4.5 4.5 0 0 0-8.86-.78l-.2.85-.87.05a3 3 0 0 0-.44.3Z"/>
  <!-- Three connected nodes inside the cloud -->
  <circle cx="8.5" cy="14.25" r="1.1"/>
  <circle cx="15.5" cy="14.25" r="1.1"/>
  <circle cx="12" cy="11.5" r="1.3"/>
  <path d="M9.4 13.6l1.9-1.5M14.6 13.6l-1.9-1.5" stroke="currentColor" stroke-width="0.7" stroke-linecap="round" fill="none"/>
</svg>
